<?xml version="1.0" standalone="no"?>
<!DOCTYPE svg PUBLIC "-//W3C//DTD SVG 20010904//EN"
 "http://www.w3.org/TR/2001/REC-SVG-20010904/DTD/svg10.dtd">
<svg version="1.0" xmlns="http://www.w3.org/2000/svg"
 width="100.000000pt" height="100.000000pt" viewBox="0 0 100.000000 100.000000"
 preserveAspectRatio="xMidYMid meet">

<g transform="translate(0.000000,100.000000) scale(0.100000,-0.100000)"
fill="#e83d73" stroke="none">
<path d="M193 850 c-61 -37 -63 -50 -63 -352 0 -391 -23 -368 370 -368 300 0
314 2 350 63 19 30 20 52 20 307 0 393 23 370 -372 370 -253 0 -275 -1 -305
-20z m598 -56 c12 -12 21 -36 22 -55 l2 -34 -315 0 -315 0 2 33 c1 36 17 60
48 73 11 4 136 7 277 6 247 -2 258 -3 279 -23z m24 -356 c0 -203 -1 -208 -23
-230 -22 -23 -25 -23 -292 -23 -346 0 -314 -24 -318 241 -2 108 -1 203 2 210
5 12 58 14 318 12 l313 -3 0 -207z"/>
<path d="M286 538 c-9 -12 -16 -26 -16 -30 0 -13 39 -48 54 -48 41 0 62 71 27
90 -30 16 -48 12 -65 -12z"/>
<path d="M467 542 c-22 -24 -21 -45 1 -65 24 -22 45 -21 65 1 22 24 21 45 -1
65 -24 22 -45 21 -65 -1z"/>
<path d="M648 549 c-34 -19 -12 -89 28 -89 15 0 54 35 54 48 0 4 -7 18 -16 30
-16 24 -39 27 -66 11z"/>
<path d="M285 346 c-18 -27 -11 -52 17 -67 42 -23 90 45 56 79 -20 20 -56 14
-73 -12z"/>
<path d="M460 351 c-16 -31 -12 -49 15 -67 23 -15 27 -15 50 0 14 9 25 25 25
36 0 45 -69 69 -90 31z"/>
</g>
</svg>
